<svg xmlns="http://www.w3.org/2000/svg" xmlns:xlink="http://www.w3.org/1999/xlink"><symbol id="ok-logo" viewBox="0 0 10 17">
<path d="M4.68034 2.88879C5.57883 2.88879 6.30954 3.64309 6.30954 4.57061C6.30954 5.49533 5.57883 6.24963 4.68034 6.24963C3.78184 6.24963 3.05114 5.49533 3.05114 4.57061C3.05114 3.64309 3.78184 2.88879 4.68034 2.88879ZM4.68034 8.62987C6.8508 8.62987 8.61531 6.80837 8.61531 4.57061C8.61531 2.33005 6.8508 0.508545 4.68034 0.508545C2.50988 0.508545 0.748075 2.33005 0.748075 4.57061C0.748075 6.80837 2.50988 8.62987 4.68034 8.62987ZM6.27165 11.9432C7.07271 11.7532 7.84401 11.4264 8.55577 10.9654C9.09433 10.6162 9.2567 9.88146 8.91842 9.32551C8.57742 8.76676 7.86837 8.59914 7.32711 8.95115C5.71685 9.996 3.64382 9.996 2.03086 8.95115C1.49231 8.59914 0.780551 8.76676 0.442263 9.32551C0.103974 9.88146 0.266352 10.6162 0.804907 10.9654C1.51667 11.4264 2.28796 11.7532 3.08903 11.9432L0.888803 14.2117C0.439555 14.6755 0.439555 15.4298 0.888803 15.8935C1.11613 16.1254 1.40841 16.2427 1.7034 16.2427C1.99839 16.2427 2.29338 16.1254 2.52071 15.8935L4.68034 13.6641L6.84268 15.8935C7.29193 16.3601 8.01992 16.3601 8.47188 15.8935C8.92112 15.4298 8.92112 14.6755 8.47188 14.2117L6.27165 11.9432Z" fill="currentColor"/>
</symbol><symbol id="reddit-logo" viewBox="0 0 15 15">
<path d="M8.85089 0.555664C8.40551 0.555664 7.98758 0.781596 7.71951 1.10741C7.45144 1.43323 7.30368 1.8304 7.19603 2.24897C7.02506 2.92201 6.97229 3.66877 6.95963 4.34181C5.70793 4.42505 4.57444 4.79606 3.63303 5.36921C3.25098 5.04815 2.79083 4.86978 2.34968 4.87454C1.84731 4.87929 1.37028 5.09571 1.01566 5.54044C0.338103 6.38947 0.416202 7.77836 1.20141 8.60361C1.15286 8.85808 1.11698 9.11969 1.11698 9.38367C1.11698 12.1805 3.97498 14.4446 7.49999 14.4446C11.025 14.4446 13.883 12.1781 13.883 9.38367C13.883 9.11969 13.8471 8.85808 13.7986 8.60361C14.5838 7.77836 14.6619 6.38947 13.9843 5.54044C13.6297 5.09571 13.1527 4.87929 12.6503 4.87454C12.2091 4.86978 11.749 5.04815 11.3669 5.36921C10.4298 4.79843 9.3026 4.42743 8.05723 4.34181C8.07412 3.72109 8.11845 3.07659 8.24298 2.59143C8.32108 2.28702 8.41396 2.06584 8.51316 1.94455C8.61237 1.82326 8.68414 1.77332 8.85089 1.77332C9.21183 1.77332 9.25827 1.88985 9.47568 2.17286C9.58544 2.31556 9.71209 2.49393 9.91472 2.66754C10.1174 2.84115 10.4171 2.99098 10.7421 2.99098V1.77332C10.6514 1.77332 10.6345 1.77094 10.5733 1.71624C10.5121 1.66154 10.4276 1.5355 10.3031 1.37378C10.054 1.04796 9.57066 0.555664 8.85089 0.555664ZM12.3632 0.669819C11.5231 0.669819 10.8435 1.43561 10.8435 2.38215C10.8435 3.32869 11.5231 4.09448 12.3632 4.09448C13.2033 4.09448 13.883 3.32869 13.883 2.38215C13.883 1.43561 13.2033 0.669819 12.3632 0.669819ZM12.3632 1.27865C12.9036 1.27865 13.3426 1.77332 13.3426 2.38215C13.3426 2.99098 12.9036 3.48565 12.3632 3.48565C11.8229 3.48565 11.3838 2.99098 11.3838 2.38215C11.3838 1.77332 11.8229 1.27865 12.3632 1.27865ZM7.49999 5.29311C10.491 5.29311 13.0218 7.16953 13.0218 9.38367C13.0218 11.6002 10.491 13.4742 7.49999 13.4742C4.50901 13.4742 1.97818 11.6002 1.97818 9.38367C1.97818 7.16953 4.50901 5.29311 7.49999 5.29311ZM2.36656 5.84486C2.51643 5.84724 2.67263 5.88529 2.82249 5.95901C2.28002 6.42277 1.84942 6.95549 1.55602 7.55719C1.35339 7.0863 1.40827 6.49887 1.65734 6.18732C1.83887 5.95901 2.09005 5.84248 2.36656 5.84486ZM12.6334 5.84486C12.9099 5.84248 13.1611 5.95901 13.3426 6.18732C13.5917 6.49887 13.6466 7.0863 13.4439 7.55719C13.1506 6.95549 12.72 6.42277 12.1775 5.95901C12.3273 5.88529 12.4835 5.84724 12.6334 5.84486ZM5.33855 7.36693C4.79819 7.36693 4.35914 7.8616 4.35914 8.47043C4.35914 9.07926 4.79819 9.57393 5.33855 9.57393C5.87891 9.57393 6.31795 9.07926 6.31795 8.47043C6.31795 7.8616 5.87891 7.36693 5.33855 7.36693ZM9.66143 7.36693C9.12107 7.36693 8.68202 7.8616 8.68202 8.47043C8.68202 9.07926 9.12107 9.57393 9.66143 9.57393C10.2018 9.57393 10.6408 9.07926 10.6408 8.47043C10.6408 7.8616 10.2018 7.36693 9.66143 7.36693ZM4.81507 11.115C5.15913 11.9165 6.22296 12.6942 7.49999 12.6942C8.77701 12.6942 9.85773 11.9165 10.2018 11.115C9.577 11.5693 8.59126 11.8761 7.49999 11.8761C6.40871 11.8761 5.43986 11.5693 4.81507 11.115Z" fill="currentColor"/>
</symbol><symbol id="slider-nav-icon" viewBox="0 0 18 34">
<path d="M17 1L0.999999 17L17 33"/>
</symbol><symbol id="vk-logo" viewBox="0 0 13 8">
<path d="M7.72274 6.05176C8.16542 5.90867 8.73219 6.99638 9.33555 7.41267C9.78841 7.728 10.1352 7.65993 10.1352 7.65993L11.7434 7.63678C11.7434 7.63678 12.5839 7.58492 12.1866 6.9172C12.1537 6.86163 11.9536 6.4222 10.9896 5.51786C9.9815 4.57185 10.1181 4.72512 11.3318 3.08962C12.0713 2.09267 12.3671 1.48376 12.2745 1.22445C12.1856 0.974862 11.6425 1.03969 11.6425 1.03969L9.83055 1.05219C9.65413 1.05265 9.50456 1.10729 9.43649 1.29066C9.4351 1.29252 9.14894 2.06211 8.76738 2.7164C7.96121 4.10046 7.63939 4.17408 7.50603 4.08749C7.19995 3.88699 7.27728 3.28317 7.27728 2.85392C7.27728 1.51246 7.47732 0.953099 6.88554 0.808627C6.68782 0.760469 6.54335 0.728982 6.03908 0.724351C5.39452 0.714627 4.84719 0.724351 4.53695 0.876695C4.33089 0.979956 4.17299 1.20639 4.26884 1.21935C4.38923 1.23556 4.65919 1.29344 4.80366 1.4907C4.98935 1.74631 4.98379 2.3191 4.98379 2.3191C4.98379 2.3191 5.08983 3.89857 4.73374 4.09444C4.48925 4.22872 4.15493 3.9546 3.43581 2.69788C3.06861 2.05516 2.79124 1.34484 2.79124 1.34484C2.79124 1.34484 2.73753 1.21287 2.64029 1.14063C2.52452 1.05497 2.36246 1.02765 2.36246 1.02765L0.642684 1.03876C0.642684 1.03876 0.384301 1.04617 0.289376 1.16008C0.205101 1.26103 0.28243 1.4694 0.28243 1.4694C0.28243 1.4694 1.62945 4.65566 3.15474 6.26059C4.55315 7.73402 6.14234 7.63632 6.14234 7.63632H6.86239C6.86239 7.63632 7.07956 7.61131 7.19069 7.49185C7.29442 7.38071 7.28979 7.17188 7.28979 7.17188C7.28979 7.17188 7.27543 6.1953 7.72274 6.05176Z" fill="currentColor"/>
</symbol></svg>